<svg width="626" height="590" viewBox="0 0 626 590" fill="none" xmlns="http://www.w3.org/2000/svg">

<mask id="mask1_632_4640" style="mask-type:alpha" maskUnits="userSpaceOnUse" x="150" y="150" width="326" height="359">
<rect x="164" y="150" width="122" height="122" rx="61" fill="#231F20"/>
<path d="M150 417C150 342.442 211.442 282 286 282V509H150V417Z" fill="#231F20"/>
<path d="M309 150C400.679 150 476 224.321 476 316V509H309V150Z" fill="#231F20"/>
</mask>
<g mask="url(#mask1_632_4640)">
<rect x="150" y="150" width="326" height="359" fill="white"/>
<path d="M321.884 479.672C320.894 479.672 320.08 479.386 319.442 478.814C318.826 478.22 318.518 477.494 318.518 476.636C318.518 475.756 318.826 475.03 319.442 474.458C320.08 473.864 320.894 473.567 321.884 473.567C322.852 473.567 323.644 473.864 324.26 474.458C324.898 475.03 325.217 475.756 325.217 476.636C325.217 477.494 324.898 478.22 324.26 478.814C323.644 479.386 322.852 479.672 321.884 479.672ZM324.689 481.586V500H319.046V481.586H324.689ZM339.998 481.388C342.154 481.388 343.87 482.092 345.146 483.5C346.444 484.886 347.093 486.8 347.093 489.242V500H341.483V490.001C341.483 488.769 341.164 487.812 340.526 487.13C339.888 486.448 339.03 486.107 337.952 486.107C336.874 486.107 336.016 486.448 335.378 487.13C334.74 487.812 334.421 488.769 334.421 490.001V500H328.778V481.586H334.421V484.028C334.993 483.214 335.763 482.576 336.731 482.114C337.699 481.63 338.788 481.388 339.998 481.388ZM349.893 490.793C349.893 488.879 350.278 487.207 351.048 485.777C351.84 484.347 352.929 483.247 354.315 482.477C355.723 481.707 357.329 481.322 359.133 481.322C361.443 481.322 363.368 481.927 364.908 483.137C366.47 484.347 367.493 486.052 367.977 488.252H361.971C361.465 486.844 360.486 486.14 359.034 486.14C358 486.14 357.175 486.547 356.559 487.361C355.943 488.153 355.635 489.297 355.635 490.793C355.635 492.289 355.943 493.444 356.559 494.258C357.175 495.05 358 495.446 359.034 495.446C360.486 495.446 361.465 494.742 361.971 493.334H367.977C367.493 495.49 366.47 497.184 364.908 498.416C363.346 499.648 361.421 500.264 359.133 500.264C357.329 500.264 355.723 499.879 354.315 499.109C352.929 498.339 351.84 497.239 351.048 495.809C350.278 494.379 349.893 492.707 349.893 490.793ZM373.833 479.672C372.843 479.672 372.029 479.386 371.391 478.814C370.775 478.22 370.467 477.494 370.467 476.636C370.467 475.756 370.775 475.03 371.391 474.458C372.029 473.864 372.843 473.567 373.833 473.567C374.801 473.567 375.593 473.864 376.209 474.458C376.847 475.03 377.166 475.756 377.166 476.636C377.166 477.494 376.847 478.22 376.209 478.814C375.593 479.386 374.801 479.672 373.833 479.672ZM376.638 481.586V500H370.995V481.586H376.638ZM379.606 490.76C379.606 488.868 379.958 487.207 380.662 485.777C381.388 484.347 382.367 483.247 383.599 482.477C384.831 481.707 386.206 481.322 387.724 481.322C389.022 481.322 390.155 481.586 391.123 482.114C392.113 482.642 392.872 483.335 393.4 484.193V481.586H399.043V500H393.4V497.393C392.85 498.251 392.08 498.944 391.09 499.472C390.122 500 388.989 500.264 387.691 500.264C386.195 500.264 384.831 499.879 383.599 499.109C382.367 498.317 381.388 497.206 380.662 495.776C379.958 494.324 379.606 492.652 379.606 490.76ZM393.4 490.793C393.4 489.385 393.004 488.274 392.212 487.46C391.442 486.646 390.496 486.239 389.374 486.239C388.252 486.239 387.295 486.646 386.503 487.46C385.733 488.252 385.348 489.352 385.348 490.76C385.348 492.168 385.733 493.29 386.503 494.126C387.295 494.94 388.252 495.347 389.374 495.347C390.496 495.347 391.442 494.94 392.212 494.126C393.004 493.312 393.4 492.201 393.4 490.793ZM408.768 475.58V500H403.125V475.58H408.768Z" fill="black"/>
</g>

</svg>
